<svg width="30" height="30" viewBox="0 0 30 30" fill="none" xmlns="http://www.w3.org/2000/svg">
<path d="M27.0312 1.76782C27.694 1.76782 28.2314 2.30528 28.2314 2.96802V24.3782C28.2314 25.0409 27.694 25.5784 27.0312 25.5784H26.4053C25.7426 25.5782 25.2051 25.0408 25.2051 24.3782V8.87329C25.2051 8.16057 24.3438 7.80389 23.8398 8.30786L5.06152 27.0852C4.5931 27.5536 3.83393 27.5542 3.36523 27.0862L2.91504 26.636C2.44626 26.1675 2.44557 25.4075 2.91406 24.9387L21.6934 6.1604C22.1973 5.6565 21.8405 4.79442 21.1279 4.79419H5.62109C4.95855 4.79396 4.42188 4.25659 4.42188 3.59399V2.96802C4.42188 2.30542 4.95855 1.76805 5.62109 1.76782H27.0312Z" fill="#5F290C" stroke="#5F290C" stroke-width="0.4"/>
</svg>
