<svg width="40" height="40" viewBox="0 0 40 40" fill="none" xmlns="http://www.w3.org/2000/svg">
<path d="M28.0006 27.4962V21.6362C28.0006 18.7562 27.3806 16.5562 24.0206 16.5562C22.4006 16.5562 21.3206 17.4362 20.8806 18.2762H20.8406V16.8162H17.6606V27.4962H20.9806V22.1962C20.9806 20.7962 21.2406 19.4562 22.9606 19.4562C24.6606 19.4562 24.6806 21.0362 24.6806 22.2762V27.4762H28.0006V27.4962Z" fill="white"/>
<path d="M12.259 16.8169H15.579V27.4969H12.259V16.8169Z" fill="white"/>
<path d="M13.92 11.498C12.86 11.498 12 12.358 12 13.418C12 14.478 12.86 15.358 13.92 15.358C14.98 15.358 15.84 14.478 15.84 13.418C15.84 12.358 14.98 11.498 13.92 11.498Z" fill="white"/>
</svg>
