<svg width="40" height="40" viewBox="0 0 40 40" fill="none" xmlns="http://www.w3.org/2000/svg">
<path d="M20.1578 28C20.1048 28 20.0518 28 19.9985 27.9998C18.7443 28.0028 17.5854 27.9709 16.4584 27.9023C15.4252 27.8395 14.482 27.4824 13.7308 26.8699C13.0059 26.2788 12.5109 25.4796 12.2595 24.4947C12.0408 23.6373 12.0292 22.7956 12.0181 21.9816C12.01 21.3974 12.0017 20.7053 12 20.0014C12.0017 19.2947 12.01 18.6025 12.0181 18.0184C12.0292 17.2044 12.0408 16.3628 12.2595 15.5052C12.5109 14.5203 13.0059 13.7212 13.7308 13.1301C14.482 12.5175 15.4252 12.1605 16.4585 12.0976C17.5855 12.0291 18.7446 11.9971 20.0015 12.0002C21.2561 11.9975 22.4146 12.0291 23.5416 12.0976C24.5748 12.1605 25.518 12.5175 26.2692 13.1301C26.9942 13.7212 27.4891 14.5203 27.7405 15.5052C27.9592 16.3626 27.9708 17.2044 27.9819 18.0184C27.99 18.6025 27.9984 19.2947 28 19.9985V20.0014C27.9984 20.7053 27.99 21.3974 27.9819 21.9816C27.9708 22.7955 27.9593 23.6372 27.7405 24.4947C27.4891 25.4796 26.9942 26.2788 26.2692 26.8699C25.518 27.4824 24.5748 27.8395 23.5416 27.9023C22.4623 27.968 21.3536 28 20.1578 28ZM19.9985 26.7498C21.2323 26.7527 22.3651 26.7216 23.4656 26.6547C24.2469 26.6072 24.9243 26.3536 25.4793 25.9011C25.9922 25.4828 26.3455 24.9056 26.5292 24.1857C26.7114 23.4719 26.7219 22.7056 26.732 21.9645C26.7399 21.3843 26.7482 20.697 26.75 20C26.7482 19.3028 26.7399 18.6157 26.732 18.0355C26.7219 17.2944 26.7114 16.528 26.5292 15.8142C26.3455 15.0942 25.9922 14.5171 25.4793 14.0987C24.9243 13.6463 24.2469 13.3928 23.4656 13.3453C22.3651 13.2783 21.2323 13.2474 20.0014 13.2501C18.7678 13.2472 17.6349 13.2783 16.5344 13.3453C15.7531 13.3928 15.0757 13.6463 14.5207 14.0987C14.0078 14.5171 13.6545 15.0942 13.4708 15.8142C13.2886 16.528 13.2781 17.2943 13.268 18.0355C13.2601 18.6162 13.2518 19.3038 13.25 20.0014C13.2518 20.696 13.2601 21.3838 13.268 21.9645C13.2781 22.7056 13.2886 23.4719 13.4708 24.1857C13.6545 24.9056 14.0078 25.4828 14.5207 25.9011C15.0757 26.3535 15.7531 26.6071 16.5344 26.6545C17.6349 26.7216 18.7681 26.7528 19.9985 26.7498ZM19.9687 23.9062C17.8148 23.9062 16.0623 22.1539 16.0623 20C16.0623 17.846 17.8148 16.0937 19.9687 16.0937C22.1227 16.0937 23.8751 17.846 23.8751 20C23.8751 22.1539 22.1227 23.9062 19.9687 23.9062ZM19.9687 17.3437C18.504 17.3437 17.3123 18.5354 17.3123 20C17.3123 21.4646 18.504 22.6562 19.9687 22.6562C21.4335 22.6562 22.625 21.4646 22.625 20C22.625 18.5354 21.4335 17.3437 19.9687 17.3437ZM24.3126 14.8437C23.7949 14.8437 23.3751 15.2634 23.3751 15.7812C23.3751 16.299 23.7949 16.7187 24.3126 16.7187C24.8304 16.7187 25.2501 16.299 25.2501 15.7812C25.2501 15.2634 24.8304 14.8437 24.3126 14.8437Z" fill="white"/>
</svg>
