<svg width="40" height="40" viewBox="0 0 40 40" fill="none" xmlns="http://www.w3.org/2000/svg">
<path d="M17.7066 27.5718C18.1456 27.1571 18.2874 26.3557 18.4443 25.7912C18.5892 25.2692 18.934 23.8125 19.002 23.29C19.5127 24.3708 20.7673 24.4989 21.8257 24.4381C23.4032 24.3476 25.0189 23.1421 25.6435 21.6622C26.2065 20.3281 26.6121 18.704 26.4722 17.2414C26.3642 16.1133 25.8311 14.7301 25.0332 13.9185C24.4257 13.3008 23.628 12.8137 22.8984 12.446C21.9885 11.9875 20.7392 11.9514 19.7684 12.0365C19.1759 12.0884 18.6182 12.1787 18.0489 12.3834C17.5448 12.5649 17.0963 12.8901 16.6124 13.1416C16.1582 13.3777 15.7659 13.6104 15.4418 13.9746C15.0945 14.3641 14.7501 14.8344 14.4384 15.2501C14.0683 15.7441 13.9131 16.3472 13.6919 16.9526C13.4956 17.4911 13.4565 18.185 13.5446 18.7762C13.7003 19.818 14.027 20.7428 14.7887 21.4713C15.055 21.726 15.5995 22.3521 15.9578 22.0343C16.3131 21.7193 16.3355 20.838 16.1365 20.4678C15.922 20.068 15.5311 19.753 15.4804 19.2752C15.3317 17.8766 15.7552 16.367 16.6189 15.2832C18.0489 13.4897 21.0252 13.1856 22.8083 14.5632C23.5548 15.1398 24.0329 16.0196 24.1199 16.9817C24.2083 17.9617 24.261 19.1469 23.8808 20.068C23.632 20.6713 23.2893 21.2866 22.9092 21.8118C22.52 22.3498 21.8619 22.7163 21.2132 22.7208C20.3192 22.7264 20.0878 22.1303 19.5365 21.5487C19.7077 21.1973 19.7918 20.5977 19.8681 20.1963C19.9758 19.6276 20.1243 19.1669 20.3133 18.6281C20.5776 17.8754 20.7151 16.7268 20.0022 16.1902C19.2179 15.5995 18.0653 16.2004 17.6194 16.9803C17.3465 17.458 17.3367 18.046 17.3494 18.5851C17.362 19.1036 17.5319 19.6118 17.5088 20.1325C17.4866 20.6375 17.2772 21.1095 17.2033 21.606C17.1144 22.2044 17.0231 22.7784 16.8713 23.3642C16.5891 24.4517 15.8379 26.6784 16.1894 27.6388C16.4575 28.373 17.4676 27.7976 17.7066 27.5718Z" fill="white"/>
</svg>
