<svg width="50" height="50" viewBox="0 0 50 50" fill="none" xmlns="http://www.w3.org/2000/svg">
<path d="M19.875 21.875C20.9796 21.875 21.875 22.7704 21.875 23.875V41.75C21.875 42.8546 20.9796 43.75 19.875 43.75H2C0.895431 43.75 0 42.8546 0 41.75V21.5625C0 9.57817 8.97651 5.97192 12.5859 5.00627C13.4528 4.77435 14.307 5.25791 14.6605 6.08274L14.9169 6.68112C15.433 7.88543 14.6704 9.29471 13.4583 9.79227C11.5651 10.5694 9.16184 12.1026 8.4375 15C7.56961 17.6037 8.50948 19.906 9.16519 21.0704C9.46333 21.5998 10.0412 21.875 10.6487 21.875H19.875ZM48 21.875C49.1046 21.875 50 22.7704 50 23.875V41.75C50 42.8546 49.1046 43.75 48 43.75H30.125C29.0204 43.75 28.125 42.8546 28.125 41.75V21.5625C28.125 9.57817 37.1015 5.97192 40.7109 5.00627C41.5778 4.77435 42.432 5.25791 42.7855 6.08274L43.0419 6.68112C43.558 7.88543 42.7954 9.29471 41.5833 9.79227C39.6901 10.5694 37.2868 12.1026 36.5625 15C35.6946 17.6037 36.6345 19.906 37.2902 21.0704C37.5883 21.5998 38.1662 21.875 38.7738 21.875H48Z" fill="#E65100"/>
</svg>
