<svg width="24" height="24" viewBox="0 0 24 24" fill="none" xmlns="http://www.w3.org/2000/svg">
<path fill-rule="evenodd" clip-rule="evenodd" d="M14.3848 15.446C13.037 16.5229 11.328 17.0429 9.60873 16.8991C7.8895 16.7552 6.29059 15.9586 5.14039 14.6727C3.99019 13.3869 3.37601 11.7094 3.424 9.9848C3.47199 8.26024 4.17849 6.6195 5.39842 5.39958C6.61834 4.17965 8.25908 3.47315 9.98364 3.42516C11.7082 3.37717 13.3857 3.99135 14.6716 5.14155C15.9574 6.29175 16.7541 7.89066 16.8979 9.60989C17.0417 11.3291 16.5218 13.0382 15.4448 14.386L20.6008 19.541C20.6745 19.6097 20.7336 19.6925 20.7746 19.7845C20.8156 19.8765 20.8377 19.9758 20.8394 20.0765C20.8412 20.1772 20.8227 20.2772 20.785 20.3706C20.7472 20.464 20.6911 20.5488 20.6199 20.62C20.5487 20.6913 20.4638 20.7474 20.3704 20.7851C20.2771 20.8228 20.177 20.8414 20.0763 20.8396C19.9756 20.8378 19.8763 20.8158 19.7843 20.7748C19.6923 20.7338 19.6095 20.6747 19.5408 20.601L14.3848 15.446ZM6.45884 13.884C5.72488 13.15 5.225 12.2148 5.02236 11.1968C4.81972 10.1787 4.92342 9.12344 5.32036 8.1643C5.71729 7.20517 6.38965 6.38523 7.25246 5.8081C8.11526 5.23098 9.12979 4.92258 10.1678 4.92189C11.2058 4.92119 12.2208 5.22822 13.0844 5.80418C13.9479 6.38014 14.6214 7.19917 15.0196 8.15778C15.4179 9.11638 15.523 10.1715 15.3217 11.1898C15.1204 12.2082 14.6218 13.144 13.8888 13.879L13.8838 13.884L13.8788 13.888C12.8939 14.8706 11.5593 15.4221 10.168 15.4214C8.77676 15.4206 7.44269 14.8677 6.45884 13.884Z" fill="#240F03"/>
</svg>
